<svg xmlns="http://www.w3.org/2000/svg" version="1.1" xmlns:xlink="http://www.w3.org/1999/xlink" xmlns:svgjs="http://svgjs.dev/svgjs" width="1500" height="503" viewBox="0 0 1500 503"><g transform="matrix(1,0,0,1,-0.9090909090909918,0.4869219612520226)"><svg viewBox="0 0 396 133" data-background-color="#0718c4" preserveAspectRatio="xMidYMid meet" height="503" width="1500" xmlns="http://www.w3.org/2000/svg" xmlns:xlink="http://www.w3.org/1999/xlink"><g id="tight-bounds" transform="matrix(1,0,0,1,0.2400000000000091,-0.12874874919785384)"><svg viewBox="0 0 395.52 133.25749749839574" height="133.25749749839574" width="395.52"><g><svg viewBox="0 0 661.792658481291 222.96934044303018" height="133.25749749839574" width="395.52"><g transform="matrix(1,0,0,1,266.27265848129105,44.12021032896821)"><svg viewBox="0 0 395.52 134.72891978509375" height="134.72891978509375" width="395.52"><g id="textblocktransform"><svg viewBox="0 0 395.52 134.72891978509375" height="134.72891978509375" width="395.52" id="textblock"><g><svg viewBox="0 0 395.52 91.71478260869564" height="91.71478260869564" width="395.52"><g transform="matrix(1,0,0,1,0,0)"><svg width="395.52" viewBox="3 -35 200.08 46.4" height="91.71478260869564" data-palette-color="#ffffff"><path d="M7.45-12.8L7.45 0 3 0 3-22Q3-27.4 6.48-31.2 9.95-35 15.45-35L15.45-35 26.9-35 26.9 0 22.2 0 22.2-30.6 15.45-30.6Q11.8-30.6 9.63-28.45 7.45-26.3 7.45-21.6L7.45-21.6 7.45-17.35Q10.25-20.3 15.45-20.3L15.45-20.3 20-20.3 20-15.9 15.45-15.9Q12.55-15.9 10.73-15.2 8.9-14.5 7.45-12.8L7.45-12.8ZM44.55 0L44.55 0Q39.65 0 36.15-3.3 32.65-6.6 32.65-11.75L32.65-11.75Q32.65-16.95 36.17-20.48 39.7-24 44.9-24L44.9-24 56.65-24 56.65-0.7Q56.65 1.55 56.07 3.35 55.5 5.15 54.45 6.4 53.4 7.65 52.55 8.35 51.7 9.05 50.5 9.8L50.5 9.8Q47.4 11.4 42.95 11.4L42.95 11.4 37.35 11.4 37.35 7.2 42.5 7.2Q46.9 7.2 48.75 6.1L48.75 6.1Q52.15 4.2 52.15-0.2L52.15-0.2 52.15-19.8 44.9-19.8Q41.35-19.8 39.25-17.6 37.15-15.4 37.15-11.75L37.15-11.75Q37.15-8.25 39.32-6.23 41.5-4.2 44.55-4.2L44.55-4.2Q47.85-4.2 50.35-6L50.35-6 50.35-1.5Q47.65 0 44.55 0ZM69.4-24L69.4 0 65 0 65-19.8 60.9-19.8 62.9-24 69.4-24ZM64.8-29L64.8-29Q64.15-29.85 64.15-30.85 64.15-31.85 64.8-32.68 65.45-33.5 66.8-33.5 68.15-33.5 68.8-32.68 69.45-31.85 69.45-30.85 69.45-29.85 68.8-29.03 68.15-28.2 66.8-28.2 65.45-28.2 64.8-29ZM76.09-9.5L76.09-9.5 76.09-35 80.59-35 80.59-9.5Q80.59-7.7 81.02-6.58 81.44-5.45 82.34-4.98 83.24-4.5 84.09-4.35 84.94-4.2 86.34-4.2L86.34-4.2 86.34 0Q80.74 0 78.42-2.15 76.09-4.3 76.09-9.5ZM101.34-24.5L101.34-24.5Q109.84-24.15 109.84-17.45L109.84-17.45Q109.84-9.1 98.89-9.1L98.89-9.1 96.84-9.1 96.84-12.95 99.24-12.95Q102.59-12.95 103.89-13.98 105.19-15 105.19-17.4L105.19-17.4Q105.19-18.95 104.04-19.73 102.89-20.5 101.09-20.5L101.09-20.5Q97.54-20.5 95.52-18 93.49-15.5 93.49-12L93.49-12Q93.49-8.3 95.67-6 97.84-3.7 101.34-3.7L101.34-3.7Q104.49-3.7 106.49-5.25L106.49-5.25 109.49-2.3Q106.04 0.5 101.34 0.5L101.34 0.5Q95.64 0.5 92.24-2.85 88.84-6.2 88.84-11.5L88.84-11.5Q88.84-17.4 92.19-21.05 95.54-24.7 101.34-24.5ZM120.04-15.9L120.04 0 115.34 0 115.34-35 120.04-35 120.04-20.3 135.24-20.3 135.24-35 139.94-35 139.94 0 135.24 0 135.24-15.9 120.04-15.9ZM152.94-24L152.94 0 148.53 0 148.53-19.8 144.44-19.8 146.44-24 152.94-24ZM148.34-29L148.34-29Q147.69-29.85 147.69-30.85 147.69-31.85 148.34-32.68 148.99-33.5 150.34-33.5 151.69-33.5 152.34-32.68 152.99-31.85 152.99-30.85 152.99-29.85 152.34-29.03 151.69-28.2 150.34-28.2 148.99-28.2 148.34-29ZM168.23 0.55L168.23 0.55Q163.93-3.5 161.91-8.4 159.88-13.3 157.88-24L157.88-24 162.48-24Q164.43-11.95 168.23-5.75L168.23-5.75Q172.03-11.95 173.98-24L173.98-24 178.58-24Q176.58-13.3 174.56-8.4 172.53-3.5 168.23 0.55ZM194.58-24.5L194.58-24.5Q203.08-24.15 203.08-17.45L203.08-17.45Q203.08-9.1 192.13-9.1L192.13-9.1 190.08-9.1 190.08-12.95 192.48-12.95Q195.83-12.95 197.13-13.98 198.43-15 198.43-17.4L198.43-17.4Q198.43-18.95 197.28-19.73 196.13-20.5 194.33-20.5L194.33-20.5Q190.78-20.5 188.75-18 186.73-15.5 186.73-12L186.73-12Q186.73-8.3 188.9-6 191.08-3.7 194.58-3.7L194.58-3.7Q197.73-3.7 199.73-5.25L199.73-5.25 202.73-2.3Q199.28 0.5 194.58 0.5L194.58 0.5Q188.88 0.5 185.48-2.85 182.08-6.2 182.08-11.5L182.08-11.5Q182.08-17.4 185.43-21.05 188.78-24.7 194.58-24.5Z" opacity="1" transform="matrix(1,0,0,1,0,0)" fill="#ffffff" class="wordmark-text-0" data-fill-palette-color="primary" id="text-0"></path></svg></g></svg></g><g transform="matrix(1,0,0,1,0,113.36644162782608)"><svg viewBox="0 0 395.52 21.36247815726767" height="21.36247815726767" width="395.52"><g transform="matrix(1,0,0,1,0,0)"><svg width="395.52" viewBox="2 -33.25 629.43 34" height="21.36247815726767" data-palette-color="#ffffff"><path d="M2 0L9.35-32.5 14.6-32.5 21.95 0 18.45 0 16.75-7.5 7.2-7.5 5.5 0 2 0ZM16.05-10.5L11.95-28.6 7.85-10.5 16.05-10.5ZM28.45-6.25L28.45-6.25 28.45-32.5 31.95-32.5 31.95-6.25Q31.95-4.35 32.77-3.3 33.6-2.25 35.8-2.25 38-2.25 39.85-3.95 41.7-5.65 41.7-7.25L41.7-7.25 41.7-32.5 45.2-32.5 45.2 0 43.7 0 42.4-3.2Q41.3-1.4 39.57-0.33 37.85 0.75 35.8 0.75L35.8 0.75Q28.45 0.75 28.45-6.25ZM54.45-5.75L54.45-32.5 65.45-32.5 65.45-29.5 57.95-29.5 57.95-5.55Q57.95-4.15 58.67-3.2 59.4-2.25 60.72-2.25 62.05-2.25 62.75-3.18 63.45-4.1 63.45-5.55L63.45-5.55 63.45-11.5 66.95-11.5 66.95-5.75Q66.95-2.6 65.27-0.93 63.6 0.75 60.75 0.75 57.9 0.75 56.17-0.93 54.45-2.6 54.45-5.75L54.45-5.75ZM90.19-26.25L90.19-26.25 90.19-6.25Q90.19-2.9 88.07-1.07 85.94 0.75 81.72 0.75 77.49 0.75 75.34-1.07 73.19-2.9 73.19-6.25L73.19-6.25 73.19-26.25Q73.19-29.6 75.32-31.43 77.44-33.25 81.67-33.25 85.89-33.25 88.04-31.43 90.19-29.6 90.19-26.25ZM86.69-6.25L86.69-6.25 86.69-26.25Q86.69-30.25 81.69-30.25 76.69-30.25 76.69-26.25L76.69-26.25 76.69-6.25Q76.69-2.25 81.69-2.25 86.69-2.25 86.69-6.25ZM102.94-25.4L102.94 0 99.44 0 99.44-32.5 100.94-32.5 102.19-29.3Q103.24-31.1 104.94-32.18 106.64-33.25 108.64-33.25L108.64-33.25Q113.69-33.25 115.09-29.6L115.09-29.6Q117.49-33.25 121.39-33.25L121.39-33.25Q128.44-33.25 128.44-26.25L128.44-26.25 128.44 0 124.94 0 124.94-26.25Q124.94-30.25 121.34-30.25L121.34-30.25Q119.24-30.25 117.47-28.55 115.69-26.85 115.69-25.25L115.69-25.25 115.69 0 112.19 0 112.19-26.25Q112.19-30.25 108.59-30.25L108.59-30.25Q106.49-30.25 104.72-28.63 102.94-27 102.94-25.4L102.94-25.4ZM153.44-26.25L153.44 0 151.94 0 150.64-3.2Q149.59-1.4 147.89-0.33 146.19 0.75 144.14 0.75L144.14 0.75Q136.94 0.75 136.94-6.25L136.94-6.25 136.94-11.25Q136.94-18.25 144.14-18.25L144.14-18.25 149.94-18.25 149.94-26.45Q149.94-28.25 148.79-29.25 147.64-30.25 145.39-30.25L145.39-30.25Q140.94-30.25 140.94-26.45L140.94-26.45 140.94-23.5 137.44-23.5 137.44-26.25Q137.44-29.6 139.41-31.43 141.39-33.25 145.39-33.25 149.39-33.25 151.41-31.43 153.44-29.6 153.44-26.25L153.44-26.25ZM149.94-7.1L149.94-15.25 144.14-15.25Q142.04-15.25 141.24-14.2 140.44-13.15 140.44-11.25L140.44-11.25 140.44-6.25Q140.44-4.35 141.24-3.3 142.04-2.25 144.14-2.25 146.24-2.25 148.04-3.88 149.84-5.5 149.94-7.1L149.94-7.1ZM162.19-5.75L162.19-32.5 173.19-32.5 173.19-29.5 165.69-29.5 165.69-5.55Q165.69-4.15 166.41-3.2 167.13-2.25 168.46-2.25 169.78-2.25 170.49-3.18 171.19-4.1 171.19-5.55L171.19-5.55 171.19-11.5 174.69-11.5 174.69-5.75Q174.69-2.6 173.01-0.93 171.34 0.75 168.49 0.75 165.63 0.75 163.91-0.93 162.19-2.6 162.19-5.75L162.19-5.75ZM185.18-32.5L185.18 0 181.68 0 181.68-32.5 185.18-32.5ZM211.43-26.25L211.43-26.25 211.43-6.25Q211.43-2.9 209.31-1.07 207.18 0.75 202.96 0.75 198.73 0.75 196.58-1.07 194.43-2.9 194.43-6.25L194.43-6.25 194.43-26.25Q194.43-29.6 196.56-31.43 198.68-33.25 202.91-33.25 207.13-33.25 209.28-31.43 211.43-29.6 211.43-26.25ZM207.93-6.25L207.93-6.25 207.93-26.25Q207.93-30.25 202.93-30.25 197.93-30.25 197.93-26.25L197.93-26.25 197.93-6.25Q197.93-2.25 202.93-2.25 207.93-2.25 207.93-6.25ZM224.18-25.25L224.18 0 220.68 0 220.68-32.5 222.18-32.5 223.43-29.25Q225.83-33.25 230.08-33.25L230.08-33.25Q237.43-33.25 237.43-26.25L237.43-26.25 237.43 0 233.93 0 233.93-26.25Q233.93-28.15 233.1-29.2 232.28-30.25 230.08-30.25 227.88-30.25 226.03-28.55 224.18-26.85 224.18-25.25L224.18-25.25ZM261.92-15L261.92 0 258.42 0 258.42-32.5 272.17-32.5 272.17-29.5 261.92-29.5 261.92-18 270.17-18 270.17-15 261.92-15ZM295.42-26.25L295.42-26.25 295.42-6.25Q295.42-2.9 293.3-1.07 291.17 0.75 286.94 0.75 282.72 0.75 280.57-1.07 278.42-2.9 278.42-6.25L278.42-6.25 278.42-26.25Q278.42-29.6 280.55-31.43 282.67-33.25 286.9-33.25 291.12-33.25 293.27-31.43 295.42-29.6 295.42-26.25ZM291.92-6.25L291.92-6.25 291.92-26.25Q291.92-30.25 286.92-30.25 281.92-30.25 281.92-26.25L281.92-26.25 281.92-6.25Q281.92-2.25 286.92-2.25 291.92-2.25 291.92-6.25ZM308.17-22.85L308.17 0 304.67 0 304.67-32.5 306.17-32.5 307.62-28.8Q309.22-33.25 312.72-33.25L312.72-33.25Q318.67-33.25 318.67-26.75L318.67-26.75 318.67-23.5 315.32-23.5 315.32-26.95Q315.32-30.25 312.57-30.25L312.57-30.25Q310.92-30.25 309.54-28.35 308.17-26.45 308.17-22.85L308.17-22.85ZM339.16-10L339.16 0 335.66 0 335.66-32.5 343.21-32.5Q347.11-32.5 349.14-30.65 351.16-28.8 351.16-25.5L351.16-25.5 351.16-17Q351.16-13.65 349.16-11.83 347.16-10 343.21-10L343.21-10 339.16-10ZM347.66-17L347.66-17 347.66-25.5Q347.66-27.4 346.51-28.45 345.36-29.5 343.21-29.5L343.21-29.5 339.16-29.5 339.16-13 343.21-13Q347.66-13 347.66-17ZM371.41-6.25L371.41-6.25 371.41-9 374.91-9 374.91-6.25Q374.91-2.9 372.86-1.07 370.81 0.75 366.71 0.75 362.61 0.75 360.51-1.07 358.41-2.9 358.41-6.25L358.41-6.25 358.41-26.25Q358.41-29.6 360.46-31.43 362.51-33.25 366.61-33.25 370.71-33.25 372.81-31.43 374.91-29.6 374.91-26.25L374.91-26.25 374.91-15.25 361.91-15.25 361.91-6.25Q361.91-2.25 366.66-2.25 371.41-2.25 371.41-6.25ZM361.91-26.25L361.91-26.25 361.91-18.25 371.41-18.25 371.41-26.25Q371.41-30.25 366.66-30.25 361.91-30.25 361.91-26.25ZM387.66-22.85L387.66 0 384.16 0 384.16-32.5 385.66-32.5 387.11-28.8Q388.71-33.25 392.21-33.25L392.21-33.25Q398.16-33.25 398.16-26.75L398.16-26.75 398.16-23.5 394.81-23.5 394.81-26.95Q394.81-30.25 392.06-30.25L392.06-30.25Q390.41-30.25 389.03-28.35 387.66-26.45 387.66-22.85L387.66-22.85ZM407.66-15L407.66 0 404.16 0 404.16-32.5 417.91-32.5 417.91-29.5 407.66-29.5 407.66-18 415.91-18 415.91-15 407.66-15ZM437.15-6.25L437.15-6.25 437.15-9 440.65-9 440.65-6.25Q440.65-2.9 438.6-1.07 436.55 0.75 432.45 0.75 428.35 0.75 426.25-1.07 424.15-2.9 424.15-6.25L424.15-6.25 424.15-26.25Q424.15-29.6 426.2-31.43 428.25-33.25 432.35-33.25 436.45-33.25 438.55-31.43 440.65-29.6 440.65-26.25L440.65-26.25 440.65-15.25 427.65-15.25 427.65-6.25Q427.65-2.25 432.4-2.25 437.15-2.25 437.15-6.25ZM427.65-26.25L427.65-26.25 427.65-18.25 437.15-18.25 437.15-26.25Q437.15-30.25 432.4-30.25 427.65-30.25 427.65-26.25ZM462.15-6.25L462.15-6.25 462.15-9 465.65-9 465.65-6.25Q465.65-2.9 463.6-1.07 461.55 0.75 457.45 0.75 453.35 0.75 451.25-1.07 449.15-2.9 449.15-6.25L449.15-6.25 449.15-26.25Q449.15-29.6 451.2-31.43 453.25-33.25 457.35-33.25 461.45-33.25 463.55-31.43 465.65-29.6 465.65-26.25L465.65-26.25 465.65-21.5 462.15-21.5 462.15-26.25Q462.15-30.25 457.4-30.25 452.65-30.25 452.65-26.25L452.65-26.25 452.65-6.25Q452.65-2.25 457.4-2.25 462.15-2.25 462.15-6.25ZM473.65-5.75L473.65-32.5 484.65-32.5 484.65-29.5 477.15-29.5 477.15-5.55Q477.15-4.15 477.87-3.2 478.6-2.25 479.92-2.25 481.25-2.25 481.95-3.18 482.65-4.1 482.65-5.55L482.65-5.55 482.65-11.5 486.15-11.5 486.15-5.75Q486.15-2.6 484.47-0.93 482.8 0.75 479.95 0.75 477.1 0.75 475.37-0.93 473.65-2.6 473.65-5.75L473.65-5.75ZM496.65-32.5L496.65 0 493.15 0 493.15-32.5 496.65-32.5ZM522.89-26.25L522.89-26.25 522.89-6.25Q522.89-2.9 520.77-1.07 518.64 0.75 514.42 0.75 510.19 0.75 508.04-1.07 505.89-2.9 505.89-6.25L505.89-6.25 505.89-26.25Q505.89-29.6 508.02-31.43 510.14-33.25 514.37-33.25 518.59-33.25 520.74-31.43 522.89-29.6 522.89-26.25ZM519.39-6.25L519.39-6.25 519.39-26.25Q519.39-30.25 514.39-30.25 509.39-30.25 509.39-26.25L509.39-26.25 509.39-6.25Q509.39-2.25 514.39-2.25 519.39-2.25 519.39-6.25ZM535.64-25.25L535.64 0 532.14 0 532.14-32.5 533.64-32.5 534.89-29.25Q537.29-33.25 541.54-33.25L541.54-33.25Q548.89-33.25 548.89-26.25L548.89-26.25 548.89 0 545.39 0 545.39-26.25Q545.39-28.15 544.56-29.2 543.74-30.25 541.54-30.25 539.34-30.25 537.49-28.55 535.64-26.85 535.64-25.25L535.64-25.25ZM561.89-32.5L561.89 0 558.39 0 558.39-32.5 561.89-32.5ZM587.78-6.25L587.78-6.25Q587.78 0.75 579.33 0.75 570.88 0.75 570.88-6.25L570.88-6.25 570.88-10.5 574.38-10.5 574.38-6.05Q574.38-4.25 575.63-3.25 576.88-2.25 579.33-2.25 581.78-2.25 583.03-3.25 584.28-4.25 584.28-5.98 584.28-7.7 583.91-8.72 583.53-9.75 582.38-10.9L582.38-10.9 573.58-19.5Q572.03-21.05 571.46-22.53 570.88-24 570.88-26.25L570.88-26.25Q570.88-29.6 572.96-31.43 575.03-33.25 579.23-33.25L579.23-33.25Q587.28-33.25 587.28-26.25L587.28-26.25 587.28-22 583.78-22 583.78-26.45Q583.78-28.25 582.61-29.25 581.43-30.25 579.08-30.25 576.73-30.25 575.56-29.25 574.38-28.25 574.38-26.5 574.38-24.75 574.73-23.75 575.08-22.75 576.28-21.65L576.28-21.65 585.23-13.05Q586.68-11.45 587.23-9.98 587.78-8.5 587.78-6.25ZM596.03-5.75L596.03-32.5 607.03-32.5 607.03-29.5 599.53-29.5 599.53-5.55Q599.53-4.15 600.26-3.2 600.98-2.25 602.31-2.25 603.63-2.25 604.33-3.18 605.03-4.1 605.03-5.55L605.03-5.55 605.03-11.5 608.53-11.5 608.53-5.75Q608.53-2.6 606.86-0.93 605.18 0.75 602.33 0.75 599.48 0.75 597.76-0.93 596.03-2.6 596.03-5.75L596.03-5.75ZM631.43-6.25L631.43-6.25Q631.43 0.75 622.98 0.75 614.53 0.75 614.53-6.25L614.53-6.25 614.53-10.5 618.03-10.5 618.03-6.05Q618.03-4.25 619.28-3.25 620.53-2.25 622.98-2.25 625.43-2.25 626.68-3.25 627.93-4.25 627.93-5.98 627.93-7.7 627.55-8.72 627.18-9.75 626.03-10.9L626.03-10.9 617.23-19.5Q615.68-21.05 615.1-22.53 614.53-24 614.53-26.25L614.53-26.25Q614.53-29.6 616.6-31.43 618.68-33.25 622.88-33.25L622.88-33.25Q630.93-33.25 630.93-26.25L630.93-26.25 630.93-22 627.43-22 627.43-26.45Q627.43-28.25 626.25-29.25 625.08-30.25 622.73-30.25 620.38-30.25 619.2-29.25 618.03-28.25 618.03-26.5 618.03-24.75 618.38-23.75 618.73-22.75 619.93-21.65L619.93-21.65 628.88-13.05Q630.33-11.45 630.88-9.98 631.43-8.5 631.43-6.25Z" opacity="1" transform="matrix(1,0,0,1,0,0)" fill="#ffffff" class="slogan-text-1" data-fill-palette-color="secondary" id="text-1"></path></svg></g></svg></g></svg></g></svg></g><g><svg viewBox="0 0 222.96934044303018 222.96934044303018" height="222.96934044303018" width="222.96934044303018"><g><svg></svg></g><g id="icon-0"><svg viewBox="0 0 222.96934044303018 222.96934044303018" height="222.96934044303018" width="222.96934044303018"><g><path d="M0 111.485c0-61.571 49.913-111.485 111.485-111.485 61.571 0 111.485 49.913 111.484 111.485 0 61.571-49.913 111.485-111.484 111.484-61.571 0-111.485-49.913-111.485-111.484zM111.485 214.698c57.003 0 103.214-46.21 103.213-103.213 0-57.003-46.21-103.214-103.213-103.214-57.003 0-103.214 46.21-103.214 103.214 0 57.003 46.21 103.214 103.214 103.213z" data-fill-palette-color="accent" fill="#ffffff" stroke="transparent"></path></g><g transform="matrix(1,0,0,1,50.972083471366574,64.04104679243186)"><svg viewBox="0 0 121.02517350029703 94.88724685816646" height="94.88724685816646" width="121.02517350029703"><g><svg xmlns="http://www.w3.org/2000/svg" xmlns:xlink="http://www.w3.org/1999/xlink" version="1.1" x="0" y="0" viewBox="1 9 62.601 49.081" style="enable-background:new 0 0 64 64;" xml:space="preserve" height="94.88724685816646" width="121.02517350029703" class="icon-cg-0" data-fill-palette-color="accent" id="cg-0"><g fill="#ffffff" data-fill-palette-color="accent"><path d="M63.601 48L51 37.919V44h-9.012c1.635-2.176 2.818-4.657 3.455-7.306L49 35.774v-7.553l-3.552-0.899c-0.487-2.028-1.29-3.959-2.395-5.758l1.882-3.157-5.344-5.343-3.157 1.881c-1.798-1.104-3.729-1.908-5.757-2.395L29.778 9h-7.557l-0.899 3.552c-2.028 0.487-3.959 1.29-5.757 2.395l-3.157-1.881-5.344 5.343 1.882 3.157c-1.104 1.798-1.908 3.73-2.395 5.758L3 28.222v7.555l3.554 0.907c0.65 2.708 1.856 5.18 3.469 7.316H1v8h25 25v6.081L63.601 48zM3 50v-4h8.762c1.617 1.638 3.504 2.994 5.585 4H3zM26 50c-8.495 0-15.907-6.029-17.625-14.335l-0.127-0.612L5 34.223v-4.445l3.246-0.821 0.127-0.614c0.456-2.208 1.325-4.298 2.583-6.212l0.344-0.523-1.72-2.886 3.142-3.142 2.886 1.721 0.523-0.344c1.914-1.258 4.004-2.127 6.212-2.583l0.614-0.127L23.778 11h4.443l0.821 3.246 0.614 0.127c2.208 0.456 4.298 1.325 6.212 2.583l0.523 0.344 2.886-1.721 3.142 3.142-1.72 2.886 0.344 0.523c1.258 1.914 2.127 4.004 2.583 6.212l0.127 0.614L47 29.778v4.447l-3.251 0.841-0.126 0.609c-0.643 3.096-2.103 5.961-4.22 8.324h-6.228C37.255 41.551 40 37.096 40 32c0-7.72-6.28-14-14-14s-14 6.28-14 14 6.28 14 14 14h27v-3.919L60.399 48 53 53.919V50H26zM26 44c-6.617 0-12-5.383-12-12s5.383-12 12-12 12 5.383 12 12S32.617 44 26 44z" fill="#ffffff" data-fill-palette-color="accent"></path><path d="M18.571 29.023l-1.857-0.742c-0.275 0.688-0.473 1.407-0.59 2.137l1.976 0.314C18.192 30.149 18.351 29.574 18.571 29.023z" fill="#ffffff" data-fill-palette-color="accent"></path><path d="M18.016 32.507L16.02 32.63c0.046 0.741 0.174 1.476 0.383 2.186l1.919-0.562C18.156 33.687 18.053 33.099 18.016 32.507z" fill="#ffffff" data-fill-palette-color="accent"></path><path d="M17.26 36.862c0.361 0.647 0.794 1.254 1.287 1.805l1.49-1.334c-0.395-0.441-0.742-0.927-1.03-1.445L17.26 36.862z" fill="#ffffff" data-fill-palette-color="accent"></path><path d="M29 32c0-1.302-0.839-2.402-2-2.816V22h-2v7.184c-1.161 0.414-2 1.514-2 2.816 0 1.654 1.346 3 3 3 0.462 0 0.894-0.113 1.285-0.301l3.008 3.008 1.414-1.414-3.008-3.008C28.887 32.894 29 32.462 29 32zM26 33c-0.551 0-1-0.449-1-1s0.449-1 1-1 1 0.449 1 1S26.551 33 26 33z" fill="#ffffff" data-fill-palette-color="accent"></path></g></svg></g></svg></g></svg></g></svg></g></svg></g><defs></defs></svg><rect width="395.52" height="133.25749749839574" fill="none" stroke="none" visibility="hidden"></rect></g></svg></g></svg>